solid OpenSCAD_Model
  facet normal -1 0 0
    outer loop
      vertex -16.51 -14.4907 -12.7
      vertex -16.51 -14.4907 12.7
      vertex -16.51 14.4907 -12.7
    endloop
  endfacet
  facet normal -1 0 0
    outer loop
      vertex -16.51 14.4907 -12.7
      vertex -16.51 -14.4907 12.7
      vertex -16.51 14.4907 12.7
    endloop
  endfacet
  facet normal 0 -1 0
    outer loop
      vertex -16.51 -14.4907 12.7
      vertex -16.51 -14.4907 -12.7
      vertex 16.51 -14.4907 -12.7
    endloop
  endfacet
  facet normal 0 -1 0
    outer loop
      vertex 16.51 -14.4907 12.7
      vertex -16.51 -14.4907 12.7
      vertex 16.51 -14.4907 -12.7
    endloop
  endfacet
  facet normal 0 0 -1
    outer loop
      vertex 15.24 -13.2207 -12.7
      vertex 16.51 -14.4907 -12.7
      vertex -15.24 -13.2207 -12.7
    endloop
  endfacet
  facet normal 0 0 -1
    outer loop
      vertex 15.24 13.2207 -12.7
      vertex -16.51 14.4907 -12.7
      vertex 16.51 14.4907 -12.7
    endloop
  endfacet
  facet normal 0 0 -1
    outer loop
      vertex -16.51 -14.4907 -12.7
      vertex -16.51 14.4907 -12.7
      vertex -15.24 13.2207 -12.7
    endloop
  endfacet
  facet normal 0 0 -1
    outer loop
      vertex -16.51 -14.4907 -12.7
      vertex -15.24 13.2207 -12.7
      vertex -15.24 -13.2207 -12.7
    endloop
  endfacet
  facet normal 0 0 -1
    outer loop
      vertex -16.51 -14.4907 -12.7
      vertex -15.24 -13.2207 -12.7
      vertex 16.51 -14.4907 -12.7
    endloop
  endfacet
  facet normal 0 0 -1
    outer loop
      vertex 16.51 -14.4907 -12.7
      vertex 15.24 -13.2207 -12.7
      vertex 16.51 14.4907 -12.7
    endloop
  endfacet
  facet normal 0 0 -1
    outer loop
      vertex 15.24 -13.2207 -12.7
      vertex 15.24 13.2207 -12.7
      vertex 16.51 14.4907 -12.7
    endloop
  endfacet
  facet normal 0 0 -1
    outer loop
      vertex -15.24 13.2207 -12.7
      vertex -16.51 14.4907 -12.7
      vertex 15.24 13.2207 -12.7
    endloop
  endfacet
  facet normal 0 1 0
    outer loop
      vertex -16.51 14.4907 -12.7
      vertex -16.51 14.4907 12.7
      vertex 16.51 14.4907 -12.7
    endloop
  endfacet
  facet normal 0 1 0
    outer loop
      vertex 16.51 14.4907 -12.7
      vertex -16.51 14.4907 12.7
      vertex 16.51 14.4907 12.7
    endloop
  endfacet
  facet normal 0 0 1
    outer loop
      vertex -16.51 14.4907 12.7
      vertex -16.51 -14.4907 12.7
      vertex 16.51 -14.4907 12.7
    endloop
  endfacet
  facet normal 0 0 1
    outer loop
      vertex 16.51 14.4907 12.7
      vertex -16.51 14.4907 12.7
      vertex 16.51 -14.4907 12.7
    endloop
  endfacet
  facet normal 1 0 0
    outer loop
      vertex 16.51 -14.4907 12.7
      vertex 16.51 -14.4907 -12.7
      vertex 16.51 14.4907 -12.7
    endloop
  endfacet
  facet normal 1 0 0
    outer loop
      vertex 16.51 14.4907 12.7
      vertex 16.51 -14.4907 12.7
      vertex 16.51 14.4907 -12.7
    endloop
  endfacet
  facet normal 1 0 0
    outer loop
      vertex -15.24 13.2207 -12.7
      vertex -15.24 13.2207 10.16
      vertex -15.24 -13.2207 10.16
    endloop
  endfacet
  facet normal 1 0 0
    outer loop
      vertex -15.24 -13.2207 -12.7
      vertex -15.24 13.2207 -12.7
      vertex -15.24 -13.2207 10.16
    endloop
  endfacet
  facet normal 0 -1 0
    outer loop
      vertex 15.24 13.2207 -12.7
      vertex 15.24 13.2207 10.16
      vertex -15.24 13.2207 10.16
    endloop
  endfacet
  facet normal 0 -1 0
    outer loop
      vertex -15.24 13.2207 -12.7
      vertex 15.24 13.2207 -12.7
      vertex -15.24 13.2207 10.16
    endloop
  endfacet
  facet normal -1 0 0
    outer loop
      vertex 15.24 13.2207 10.16
      vertex 15.24 13.2207 -12.7
      vertex 15.24 -13.2207 10.16
    endloop
  endfacet
  facet normal -1 0 0
    outer loop
      vertex 15.24 -13.2207 10.16
      vertex 15.24 13.2207 -12.7
      vertex 15.24 -13.2207 -12.7
    endloop
  endfacet
  facet normal 0 1 0
    outer loop
      vertex 15.24 -13.2207 10.16
      vertex 15.24 -13.2207 -12.7
      vertex -15.24 -13.2207 10.16
    endloop
  endfacet
  facet normal 0 1 0
    outer loop
      vertex -15.24 -13.2207 10.16
      vertex 15.24 -13.2207 -12.7
      vertex -15.24 -13.2207 -12.7
    endloop
  endfacet
  facet normal 0 0 -1
    outer loop
      vertex 15.24 13.2207 10.16
      vertex 15.24 -13.2207 10.16
      vertex -15.24 13.2207 10.16
    endloop
  endfacet
  facet normal 0 0 -1
    outer loop
      vertex -15.24 13.2207 10.16
      vertex 15.24 -13.2207 10.16
      vertex -15.24 -13.2207 10.16
    endloop
  endfacet
endsolid OpenSCAD_Model
